PathFileType	4	(X/Y/Z)	../Python\walking\Walking20\task.trc
DataRate	CameraRate	NumFrames	NumMarkers	Units	OrigDataRate	OrigDataStartFrame	OrigNumFrames
200.000000	200.000000	4	30	mm	200.000000	181	485
Frame#	Time	CLAV			STRN			RASI			LASI			PE01			RTH1			RTH2			RTH3			RTB1			RHEE			RD5M			RTOE			LTH2			LTH3			LTB1			LTB2			LTB3			LHEE			LTOE			LD5M			RTB3			RBAK			RTB2			C7			RPSI			LPSI			PE03			PE02			LTH1			T10			
		X1	Y1	Z1	X2	Y2	Z2	X3	Y3	Z3	X4	Y4	Z4	X5	Y5	Z5	X6	Y6	Z6	X7	Y7	Z7	X8	Y8	Z8	X9	Y9	Z9	X10	Y10	Z10	X11	Y11	Z11	X12	Y12	Z12	X13	Y13	Z13	X14	Y14	Z14	X15	Y15	Z15	X16	Y16	Z16	X17	Y17	Z17	X18	Y18	Z18	X19	Y19	Z19	X20	Y20	Z20	X21	Y21	Z21	X22	Y22	Z22	X23	Y23	Z23	X24	Y24	Z24	X25	Y25	Z25	X26	Y26	Z26	X27	Y27	Z27	X28	Y28	Z28	X29	Y29	Z29	X30	Y30	Z30	

182	0.905	-291.6311645507814	1271.593505859375	175.1058349609376	-222.3091430664064	1088.764404296875	183.9704589843751	-265.0437011718751	881.6779174804692	309.6224365234376	-242.4835510253907	884.210815429688	83.98287200927737	-450.3507385253909	960.2217407226567	192.2379760742189	-264.9832458496095	591.481384277344	350.7182617187501	-225.3714904785157	522.9566040039065	340.8131713867189	-214.8694610595704	583.6883544921877	345.4173583984376	-292.0401611328126	328.4603576660157	321.3292846679689	-527.8103637695315	183.7275848388672	220.7482299804689	-441.794128417969	79.17617034912112	310.5819396972657	-403.7071533203127	64.95487976074222	271.6091613769532	-302.9295349121095	558.7855224609377	67.40429687500003	-234.9550628662111	598.3645629882815	73.78049468994143	-324.036590576172	285.3984680175782	86.38521575927737	-336.378875732422	207.6696929931642	99.35600280761724	-296.9341735839845	233.5779113769532	108.1333694458008	-387.8869628906252	34.79071044921876	157.7900848388672	-197.2171173095704	29.57922172546388	183.8268432617188	-233.1409454345704	14.72669506072999	127.9700469970704	-350.432342529297	275.4486083984376	309.0105895996095	-461.009704589844	1259.522094726563	282.4365844726564	-353.4555664062501	324.7383422851564	322.2687072753907	-420.6869812011721	1356.514282226563	176.4473419189454	-455.4838867187502	923.1415405273442	235.6006011962892	-448.8258972167971	925.3879394531255	147.2221832275391	-459.984069824219	901.8073730468755	161.0822448730469	-465.7592773437502	898.5022583007817	210.9363861083986	-277.9243774414064	614.4976196289065	55.15952301025393	-433.2775878906252	1060.313232421875	185.3299560546876	
183	0.91	-285.5097656250001	1272.14013671875	175.6671600341797	-216.3352203369142	1089.271362304688	184.3930358886719	-258.896697998047	882.6715698242192	309.3606872558595	-236.4295196533204	884.5518188476567	83.75614166259768	-444.2732238769534	960.7541503906255	191.8723602294922	-255.7509002685548	593.0479125976565	350.377166748047	-215.2587280273439	525.0568847656252	340.3886108398439	-205.5289001464845	585.9082031250002	345.2760620117189	-277.9053955078126	328.7321166992189	321.1129760742189	-511.1431579589846	178.0018310546876	221.7705078125001	-420.9322814941409	77.15130615234378	311.7472534179689	-382.5196838378907	64.0773849487305	272.6162109375001	-299.6665649414064	559.0132446289065	67.5185470581055	-231.3758850097657	597.8305664062502	74.38733673095706	-323.5360107421876	285.469207763672	86.44752502441409	-336.0451965332032	207.7870941162111	99.42641448974615	-296.4536132812501	233.5575714111329	108.0857696533204	-387.8584899902346	34.9025115966797	157.8560638427735	-197.1586914062501	29.57710838317873	183.9051361083985	-233.1484985351564	14.77868938446046	128.0148010253907	-335.1544494628907	274.3258361816407	309.0567321777345	-455.2173156738284	1259.896118164063	282.1815795898439	-339.1199951171876	323.4363098144532	322.6502075195314	-414.5549011230471	1357.007080078125	176.6357574462891	-449.4046020507815	923.791870117188	235.4013061523439	-442.7530212402346	925.8169555664067	146.9729766845704	-454.0592041015627	902.197143554688	160.9334106445313	-459.768005371094	899.1344604492192	210.8216400146486	-273.9311523437501	614.568298339844	55.49052047729495	-427.1286926269534	1060.8388671875	184.8440246582032	
184	0.915	-279.3965148925782	1272.601806640625	176.2110290527344	-210.3656311035157	1089.697265625	184.7837677001954	-252.7304840087892	883.5783081054692	309.0893859863282	-230.3714904785157	884.822143554688	83.53081512451175	-438.191589355469	961.1991577148442	191.5524291992188	-246.6763305664064	594.529235839844	349.992156982422	-205.357879638672	527.058044433594	339.9141540527345	-196.3689422607423	588.006774902344	345.1068725585939	-263.8001098632814	328.8815917968751	320.8776245117189	-494.1787109375002	172.0374298095704	222.8416137695314	-399.8853454589846	74.97370147705081	312.8020019531251	-361.2070617675782	63.09501266479495	273.4622497558595	-296.4590454101564	559.2134399414065	67.62503814697268	-227.8561859130861	597.2602539062502	74.95023345947268	-323.0278320312501	285.5264587402345	86.48432922363284	-335.7020874023439	207.9014892578126	99.4779891967774	-295.976287841797	233.5367584228517	108.0325164794922	-387.8352355957034	35.01833343505861	157.9113311767579	-197.1036529541017	29.57011795043947	183.9873352050782	-233.1568756103517	14.83247566223145	128.0613555908204	-319.8239135742189	273.0651855468751	309.0881347656251	-449.4139099121096	1260.194458007813	281.9387207031251	-324.782196044922	321.9633789062501	323.0357666015626	-408.4277648925784	1357.416870117188	176.8274230957032	-443.3113098144534	924.3517456054692	235.2483367919923	-436.6844482421877	926.1652832031255	146.7627410888672	-448.1357116699221	902.505737304688	160.8192291259766	-453.760925292969	899.6738281250005	210.7474822998048	-269.9936523437501	614.5948486328127	55.80666351318362	-420.9843750000002	1061.274780273438	184.3967437744141	
185	0.92	-273.2897033691407	1272.975952148438	176.7365112304688	-204.3981933593751	1090.039306640625	185.1429901123047	-246.5455627441407	884.3915405273442	308.8121948242189	-224.3082733154298	885.0178833007817	83.30842590332034	-432.1045837402346	961.553833007813	191.2810516357422	-237.7575988769532	595.9171142578127	349.5654296875001	-195.6645812988282	528.9505004882815	339.3924865722657	-187.3866119384766	589.9743652343752	344.909149169922	-249.7359313964845	328.9190979003907	320.6309814453126	-476.9164123535159	165.8550567626954	223.9548797607423	-378.6533813476564	72.66584014892581	313.7512817382814	-339.7692260742189	62.02351379394534	274.161102294922	-293.3034667968751	559.3878173828127	67.71819305419925	-224.3897247314454	596.6594848632815	75.46706390380862	-322.500213623047	285.5706787109376	86.4899826049805	-335.3410949707032	208.0133209228517	99.50413513183599	-295.4955139160157	233.5159301757814	107.9713821411133	-387.8168640136721	35.13873672485353	157.9533233642579	-197.0549621582032	29.55491638183595	184.0723876953126	-233.1654357910157	14.88704681396485	128.1082305908204	-304.4511718750001	271.6880798339845	309.1119995117189	-443.5983886718752	1260.414672851563	281.7074584960939	-310.4508056640626	320.3436889648439	323.4175415039064	-402.3039550781252	1357.74169921875	177.0214996337891	-437.2043457031252	924.8164672851567	235.1414184570314	-430.6200256347659	926.4313354492192	146.5930328369141	-442.2112731933596	902.731567382813	160.7415466308594	-447.7375793457034	900.116821289063	210.7145996093751	-266.1126098632814	614.578308105469	56.10266876220706	-414.844177246094	1061.61865234375	183.9893493652344	
